<?xml version="1.0" encoding="UTF-8" standalone="no"?>
<svg
   xmlns:dc="http://purl.org/dc/elements/1.1/"
   xmlns:cc="http://creativecommons.org/ns#"
   xmlns:rdf="http://www.w3.org/1999/02/22-rdf-syntax-ns#"
   xmlns:svg="http://www.w3.org/2000/svg"
   xmlns="http://www.w3.org/2000/svg"
   xmlns:sodipodi="http://sodipodi.sourceforge.net/DTD/sodipodi-0.dtd"
   xmlns:inkscape="http://www.inkscape.org/namespaces/inkscape"
   width="9.9999997e-06mm"
   height="9.9999997e-06mm"
   viewBox="0 0 9.9999997e-06 9.9999997e-06"
   version="1.1"
   id="svg848"
   inkscape:version="1.0.1 (3bc2e813f5, 2020-09-07)"
   sodipodi:docname="curved_sloth.svg">
  <defs
     id="defs842" />
  <sodipodi:namedview
     id="base"
     pagecolor="#ffffff"
     bordercolor="#666666"
     borderopacity="1.0"
     inkscape:pageopacity="0.0"
     inkscape:pageshadow="2"
     inkscape:zoom="3.959798"
     inkscape:cx="-21.681899"
     inkscape:cy="25.208862"
     inkscape:document-units="mm"
     inkscape:current-layer="layer1"
     inkscape:document-rotation="0"
     showgrid="false"
     inkscape:window-width="1837"
     inkscape:window-height="1057"
     inkscape:window-x="75"
     inkscape:window-y="-8"
     inkscape:window-maximized="1" />
  <metadata
     id="metadata845">
    <rdf:RDF>
      <cc:Work
         rdf:about="">
        <dc:format>image/svg+xml</dc:format>
        <dc:type
           rdf:resource="http://purl.org/dc/dcmitype/StillImage" />
        <dc:title></dc:title>
      </cc:Work>
    </rdf:RDF>
  </metadata>
  <g
     inkscape:label="Layer 1"
     inkscape:groupmode="layer"
     id="layer1">
    <path
       id="path853"
       style="fill:none;stroke:#000000;stroke-width:0.377953"
       d="M -40.638672 -6.6132812 A 6.6141732 6.6141732 0 0 0 -47.244141 0 A 6.6141732 6.6141732 0 0 0 -47.0625 1.5429688 A 6.6141732 6.6141732 0 0 0 -47.142578 3.0898438 A 6.6141732 6.6141732 0 0 0 -46.859375 4.6132812 A 6.6141732 6.6141732 0 0 0 -46.839844 6.1660156 A 6.6141732 6.6141732 0 0 0 -46.457031 7.6738281 A 6.6141732 6.6141732 0 0 0 -46.335938 9.2167969 A 6.6141732 6.6141732 0 0 0 -45.855469 10.695312 A 6.6141732 6.6141732 0 0 0 -45.634766 12.228516 A 6.6141732 6.6141732 0 0 0 -45.060547 13.666016 A 6.6141732 6.6141732 0 0 0 -44.736328 15.185547 A 6.6141732 6.6141732 0 0 0 -44.068359 16.585938 A 6.6141732 6.6141732 0 0 0 -43.648438 18.080078 A 6.6141732 6.6141732 0 0 0 -42.888672 19.433594 A 6.6141732 6.6141732 0 0 0 -42.371094 20.896484 A 6.6141732 6.6141732 0 0 0 -41.527344 22.195312 A 6.6141732 6.6141732 0 0 0 -40.914062 23.621094 A 6.6141732 6.6141732 0 0 0 -39.988281 24.863281 A 6.6141732 6.6141732 0 0 0 -39.28125 26.248047 A 6.6141732 6.6141732 0 0 0 -38.273438 27.429688 A 6.6141732 6.6141732 0 0 0 -37.480469 28.759766 A 6.6141732 6.6141732 0 0 0 -36.398438 29.873047 A 6.6141732 6.6141732 0 0 0 -35.519531 31.150391 A 6.6141732 6.6141732 0 0 0 -34.365234 32.189453 A 6.6141732 6.6141732 0 0 0 -33.40625 33.40625 A 6.6141732 6.6141732 0 0 0 -32.1875 34.367188 A 6.6141732 6.6141732 0 0 0 -31.150391 35.519531 A 6.6141732 6.6141732 0 0 0 -29.871094 36.400391 A 6.6141732 6.6141732 0 0 0 -28.759766 37.480469 A 6.6141732 6.6141732 0 0 0 -27.425781 38.275391 A 6.6141732 6.6141732 0 0 0 -26.248047 39.28125 A 6.6141732 6.6141732 0 0 0 -24.867188 39.984375 A 6.6141732 6.6141732 0 0 0 -23.621094 40.914062 A 6.6141732 6.6141732 0 0 0 -22.197266 41.527344 A 6.6141732 6.6141732 0 0 0 -20.896484 42.371094 A 6.6141732 6.6141732 0 0 0 -19.433594 42.888672 A 6.6141732 6.6141732 0 0 0 -18.080078 43.648438 A 6.6141732 6.6141732 0 0 0 -16.585938 44.068359 A 6.6141732 6.6141732 0 0 0 -15.185547 44.736328 A 6.6141732 6.6141732 0 0 0 -13.669922 45.058594 A 6.6141732 6.6141732 0 0 0 -12.228516 45.634766 A 6.6141732 6.6141732 0 0 0 -10.693359 45.855469 A 6.6141732 6.6141732 0 0 0 -9.2167969 46.335938 A 6.6141732 6.6141732 0 0 0 -7.671875 46.457031 A 6.6141732 6.6141732 0 0 0 -6.1660156 46.839844 A 6.6141732 6.6141732 0 0 0 -4.6171875 46.859375 A 6.6141732 6.6141732 0 0 0 -3.0898438 47.142578 A 6.6141732 6.6141732 0 0 0 3.9433594 40.974609 A 6.6141732 6.6141732 0 0 0 -2.2246094 33.943359 A 6.6141732 6.6141732 0 0 0 -3.3476562 33.964844 A 6.6141732 6.6141732 0 0 0 -4.4394531 33.724609 A 6.6141732 6.6141732 0 0 0 -5.5585938 33.673828 A 6.6141732 6.6141732 0 0 0 -6.6367188 33.361328 A 6.6141732 6.6141732 0 0 0 -7.75 33.238281 A 6.6141732 6.6141732 0 0 0 -8.8046875 32.857422 A 6.6141732 6.6141732 0 0 0 -9.9101562 32.660156 A 6.6141732 6.6141732 0 0 0 -10.933594 32.210938 A 6.6141732 6.6141732 0 0 0 -12.021484 31.943359 A 6.6141732 6.6141732 0 0 0 -13.017578 31.425781 A 6.6141732 6.6141732 0 0 0 -14.085938 31.087891 A 6.6141732 6.6141732 0 0 0 -15.044922 30.507812 A 6.6141732 6.6141732 0 0 0 -16.087891 30.099609 A 6.6141732 6.6141732 0 0 0 -17.007812 29.458984 A 6.6141732 6.6141732 0 0 0 -18.023438 28.982422 A 6.6141732 6.6141732 0 0 0 -18.898438 28.283203 A 6.6141732 6.6141732 0 0 0 -19.878906 27.742188 A 6.6141732 6.6141732 0 0 0 -20.707031 26.986328 A 6.6141732 6.6141732 0 0 0 -21.652344 26.380859 A 6.6141732 6.6141732 0 0 0 -22.427734 25.574219 A 6.6141732 6.6141732 0 0 0 -23.332031 24.908203 A 6.6141732 6.6141732 0 0 0 -24.052734 24.052734 A 6.6141732 6.6141732 0 0 0 -24.910156 23.330078 A 6.6141732 6.6141732 0 0 0 -25.574219 22.427734 A 6.6141732 6.6141732 0 0 0 -26.380859 21.652344 A 6.6141732 6.6141732 0 0 0 -26.986328 20.707031 A 6.6141732 6.6141732 0 0 0 -27.742188 19.880859 A 6.6141732 6.6141732 0 0 0 -28.283203 18.898438 A 6.6141732 6.6141732 0 0 0 -28.982422 18.023438 A 6.6141732 6.6141732 0 0 0 -29.458984 17.007812 A 6.6141732 6.6141732 0 0 0 -30.099609 16.087891 A 6.6141732 6.6141732 0 0 0 -30.507812 15.044922 A 6.6141732 6.6141732 0 0 0 -31.087891 14.085938 A 6.6141732 6.6141732 0 0 0 -31.425781 13.017578 A 6.6141732 6.6141732 0 0 0 -31.941406 12.021484 A 6.6141732 6.6141732 0 0 0 -32.210938 10.933594 A 6.6141732 6.6141732 0 0 0 -32.660156 9.90625 A 6.6141732 6.6141732 0 0 0 -32.857422 8.8046875 A 6.6141732 6.6141732 0 0 0 -33.238281 7.7519531 A 6.6141732 6.6141732 0 0 0 -33.361328 6.6367188 A 6.6141732 6.6141732 0 0 0 -33.673828 5.5605469 A 6.6141732 6.6141732 0 0 0 -33.724609 4.4394531 A 6.6141732 6.6141732 0 0 0 -33.964844 3.34375 A 6.6141732 6.6141732 0 0 0 -33.943359 2.2246094 A 6.6141732 6.6141732 0 0 0 -34.111328 1.1171875 A 6.6141732 6.6141732 0 0 0 -34.015625 0 A 6.6141732 6.6141732 0 0 0 -40.630859 -6.6132812 A 6.6141732 6.6141732 0 0 0 -40.638672 -6.6132812 z "
       transform="scale(0.26458333)" />
    <path
       id="circle833"
       style="fill:none;stroke:#000000;stroke-width:0.377953"
       d="M 36.4375 -24.583984 A 6.6141732 6.6141732 0 0 0 33.513672 -23.902344 A 6.6141732 6.6141732 0 0 0 30.507812 -15.044922 A 6.6141732 6.6141732 0 0 0 31.087891 -14.085938 A 6.6141732 6.6141732 0 0 0 31.425781 -13.017578 A 6.6141732 6.6141732 0 0 0 31.941406 -12.021484 A 6.6141732 6.6141732 0 0 0 32.210938 -10.933594 A 6.6141732 6.6141732 0 0 0 32.660156 -9.90625 A 6.6141732 6.6141732 0 0 0 32.857422 -8.8046875 A 6.6141732 6.6141732 0 0 0 33.238281 -7.7519531 A 6.6141732 6.6141732 0 0 0 33.361328 -6.6367188 A 6.6141732 6.6141732 0 0 0 33.673828 -5.5605469 A 6.6141732 6.6141732 0 0 0 33.724609 -4.4394531 A 6.6141732 6.6141732 0 0 0 33.964844 -3.34375 A 6.6141732 6.6141732 0 0 0 33.943359 -2.2246094 A 6.6141732 6.6141732 0 0 0 34.111328 -1.1171875 A 6.6141732 6.6141732 0 0 0 34.015625 0 A 6.6141732 6.6141732 0 0 0 34.111328 1.1171875 A 6.6141732 6.6141732 0 0 0 33.943359 2.2246094 A 6.6141732 6.6141732 0 0 0 33.964844 3.3476562 A 6.6141732 6.6141732 0 0 0 33.724609 4.4394531 A 6.6141732 6.6141732 0 0 0 33.673828 5.5585938 A 6.6141732 6.6141732 0 0 0 33.361328 6.6367188 A 6.6141732 6.6141732 0 0 0 33.238281 7.75 A 6.6141732 6.6141732 0 0 0 32.857422 8.8046875 A 6.6141732 6.6141732 0 0 0 32.660156 9.9101562 A 6.6141732 6.6141732 0 0 0 32.210938 10.933594 A 6.6141732 6.6141732 0 0 0 31.943359 12.021484 A 6.6141732 6.6141732 0 0 0 31.425781 13.017578 A 6.6141732 6.6141732 0 0 0 31.087891 14.085938 A 6.6141732 6.6141732 0 0 0 30.507812 15.044922 A 6.6141732 6.6141732 0 0 0 30.099609 16.087891 A 6.6141732 6.6141732 0 0 0 29.458984 17.007812 A 6.6141732 6.6141732 0 0 0 28.982422 18.023438 A 6.6141732 6.6141732 0 0 0 28.283203 18.898438 A 6.6141732 6.6141732 0 0 0 27.742188 19.878906 A 6.6141732 6.6141732 0 0 0 26.986328 20.707031 A 6.6141732 6.6141732 0 0 0 26.380859 21.652344 A 6.6141732 6.6141732 0 0 0 25.574219 22.427734 A 6.6141732 6.6141732 0 0 0 24.908203 23.332031 A 6.6141732 6.6141732 0 0 0 24.052734 24.052734 A 6.6141732 6.6141732 0 0 0 23.330078 24.910156 A 6.6141732 6.6141732 0 0 0 22.427734 25.574219 A 6.6141732 6.6141732 0 0 0 21.652344 26.380859 A 6.6141732 6.6141732 0 0 0 20.707031 26.986328 A 6.6141732 6.6141732 0 0 0 19.880859 27.742188 A 6.6141732 6.6141732 0 0 0 18.898438 28.283203 A 6.6141732 6.6141732 0 0 0 18.023438 28.982422 A 6.6141732 6.6141732 0 0 0 17.007812 29.458984 A 6.6141732 6.6141732 0 0 0 14.587891 38.494141 A 6.6141732 6.6141732 0 0 0 23.621094 40.914062 A 6.6141732 6.6141732 0 0 0 24.863281 39.988281 A 6.6141732 6.6141732 0 0 0 26.248047 39.28125 A 6.6141732 6.6141732 0 0 0 27.429688 38.273438 A 6.6141732 6.6141732 0 0 0 28.759766 37.480469 A 6.6141732 6.6141732 0 0 0 29.873047 36.398438 A 6.6141732 6.6141732 0 0 0 31.150391 35.519531 A 6.6141732 6.6141732 0 0 0 32.189453 34.365234 A 6.6141732 6.6141732 0 0 0 33.40625 33.40625 A 6.6141732 6.6141732 0 0 0 34.367188 32.1875 A 6.6141732 6.6141732 0 0 0 35.519531 31.150391 A 6.6141732 6.6141732 0 0 0 36.400391 29.871094 A 6.6141732 6.6141732 0 0 0 37.480469 28.759766 A 6.6141732 6.6141732 0 0 0 38.275391 27.425781 A 6.6141732 6.6141732 0 0 0 39.28125 26.248047 A 6.6141732 6.6141732 0 0 0 39.984375 24.867188 A 6.6141732 6.6141732 0 0 0 40.914062 23.621094 A 6.6141732 6.6141732 0 0 0 41.527344 22.197266 A 6.6141732 6.6141732 0 0 0 42.371094 20.896484 A 6.6141732 6.6141732 0 0 0 42.888672 19.433594 A 6.6141732 6.6141732 0 0 0 43.648438 18.080078 A 6.6141732 6.6141732 0 0 0 44.068359 16.585938 A 6.6141732 6.6141732 0 0 0 44.736328 15.185547 A 6.6141732 6.6141732 0 0 0 45.058594 13.669922 A 6.6141732 6.6141732 0 0 0 45.634766 12.228516 A 6.6141732 6.6141732 0 0 0 45.855469 10.693359 A 6.6141732 6.6141732 0 0 0 46.335938 9.2167969 A 6.6141732 6.6141732 0 0 0 46.457031 7.671875 A 6.6141732 6.6141732 0 0 0 46.839844 6.1660156 A 6.6141732 6.6141732 0 0 0 46.859375 4.6171875 A 6.6141732 6.6141732 0 0 0 47.142578 3.0898438 A 6.6141732 6.6141732 0 0 0 47.0625 1.5390625 A 6.6141732 6.6141732 0 0 0 47.244141 0 A 6.6141732 6.6141732 0 0 0 47.0625 -1.5429688 A 6.6141732 6.6141732 0 0 0 47.142578 -3.0898438 A 6.6141732 6.6141732 0 0 0 46.859375 -4.6132812 A 6.6141732 6.6141732 0 0 0 46.839844 -6.1660156 A 6.6141732 6.6141732 0 0 0 46.457031 -7.6738281 A 6.6141732 6.6141732 0 0 0 46.335938 -9.2167969 A 6.6141732 6.6141732 0 0 0 45.855469 -10.695312 A 6.6141732 6.6141732 0 0 0 45.634766 -12.228516 A 6.6141732 6.6141732 0 0 0 45.060547 -13.666016 A 6.6141732 6.6141732 0 0 0 44.736328 -15.185547 A 6.6141732 6.6141732 0 0 0 44.068359 -16.585938 A 6.6141732 6.6141732 0 0 0 43.648438 -18.080078 A 6.6141732 6.6141732 0 0 0 42.890625 -19.431641 A 6.6141732 6.6141732 0 0 0 42.371094 -20.896484 A 6.6141732 6.6141732 0 0 0 36.4375 -24.583984 z "
       transform="scale(0.26458333)" />
    <path
       id="path839"
       style="fill:none;stroke:#000000;stroke-width:0.377953"
       d="M -0.009765625 -47.244141 A 6.6141732 6.6141732 0 0 0 -1.5429688 -47.0625 A 6.6141732 6.6141732 0 0 0 -3.0898438 -47.142578 A 6.6141732 6.6141732 0 0 0 -4.6132812 -46.859375 A 6.6141732 6.6141732 0 0 0 -6.1660156 -46.839844 A 6.6141732 6.6141732 0 0 0 -7.6738281 -46.457031 A 6.6141732 6.6141732 0 0 0 -9.2167969 -46.335938 A 6.6141732 6.6141732 0 0 0 -10.695312 -45.855469 A 6.6141732 6.6141732 0 0 0 -12.228516 -45.634766 A 6.6141732 6.6141732 0 0 0 -13.666016 -45.060547 A 6.6141732 6.6141732 0 0 0 -15.185547 -44.736328 A 6.6141732 6.6141732 0 0 0 -16.585938 -44.068359 A 6.6141732 6.6141732 0 0 0 -18.080078 -43.648438 A 6.6141732 6.6141732 0 0 0 -19.431641 -42.890625 A 6.6141732 6.6141732 0 0 0 -20.896484 -42.371094 A 6.6141732 6.6141732 0 0 0 -22.195312 -41.527344 A 6.6141732 6.6141732 0 0 0 -23.621094 -40.914062 A 6.6141732 6.6141732 0 0 0 -24.863281 -39.988281 A 6.6141732 6.6141732 0 0 0 -26.248047 -39.28125 A 6.6141732 6.6141732 0 0 0 -27.429688 -38.273438 A 6.6141732 6.6141732 0 0 0 -28.759766 -37.480469 A 6.6141732 6.6141732 0 0 0 -29.873047 -36.398438 A 6.6141732 6.6141732 0 0 0 -31.150391 -35.519531 A 6.6141732 6.6141732 0 0 0 -32.189453 -34.365234 A 6.6141732 6.6141732 0 0 0 -33.40625 -33.40625 A 6.6141732 6.6141732 0 0 0 -34.367188 -32.1875 A 6.6141732 6.6141732 0 0 0 -35.519531 -31.150391 A 6.6141732 6.6141732 0 0 0 -36.400391 -29.871094 A 6.6141732 6.6141732 0 0 0 -37.480469 -28.759766 A 6.6141732 6.6141732 0 0 0 -38.275391 -27.425781 A 6.6141732 6.6141732 0 0 0 -39.28125 -26.248047 A 6.6141732 6.6141732 0 0 0 -37.457031 -17.074219 A 6.6141732 6.6141732 0 0 0 -28.283203 -18.898438 A 6.6141732 6.6141732 0 0 0 -27.742188 -19.878906 A 6.6141732 6.6141732 0 0 0 -26.986328 -20.707031 A 6.6141732 6.6141732 0 0 0 -26.380859 -21.652344 A 6.6141732 6.6141732 0 0 0 -25.574219 -22.427734 A 6.6141732 6.6141732 0 0 0 -24.908203 -23.332031 A 6.6141732 6.6141732 0 0 0 -24.052734 -24.052734 A 6.6141732 6.6141732 0 0 0 -23.330078 -24.910156 A 6.6141732 6.6141732 0 0 0 -22.427734 -25.574219 A 6.6141732 6.6141732 0 0 0 -21.652344 -26.380859 A 6.6141732 6.6141732 0 0 0 -20.707031 -26.986328 A 6.6141732 6.6141732 0 0 0 -19.880859 -27.742188 A 6.6141732 6.6141732 0 0 0 -18.898438 -28.283203 A 6.6141732 6.6141732 0 0 0 -18.023438 -28.982422 A 6.6141732 6.6141732 0 0 0 -17.007812 -29.458984 A 6.6141732 6.6141732 0 0 0 -16.087891 -30.099609 A 6.6141732 6.6141732 0 0 0 -15.044922 -30.507812 A 6.6141732 6.6141732 0 0 0 -14.085938 -31.087891 A 6.6141732 6.6141732 0 0 0 -13.017578 -31.425781 A 6.6141732 6.6141732 0 0 0 -12.021484 -31.941406 A 6.6141732 6.6141732 0 0 0 -10.933594 -32.210938 A 6.6141732 6.6141732 0 0 0 -9.90625 -32.660156 A 6.6141732 6.6141732 0 0 0 -8.8046875 -32.857422 A 6.6141732 6.6141732 0 0 0 -7.7519531 -33.238281 A 6.6141732 6.6141732 0 0 0 -6.6367188 -33.361328 A 6.6141732 6.6141732 0 0 0 -5.5605469 -33.673828 A 6.6141732 6.6141732 0 0 0 -4.4394531 -33.724609 A 6.6141732 6.6141732 0 0 0 -3.34375 -33.964844 A 6.6141732 6.6141732 0 0 0 -2.2246094 -33.943359 A 6.6141732 6.6141732 0 0 0 -1.1171875 -34.111328 A 6.6141732 6.6141732 0 0 0 0 -34.015625 A 6.6141732 6.6141732 0 0 0 1.1171875 -34.111328 A 6.6141732 6.6141732 0 0 0 2.2246094 -33.943359 A 6.6141732 6.6141732 0 0 0 3.3476562 -33.964844 A 6.6141732 6.6141732 0 0 0 4.4394531 -33.724609 A 6.6141732 6.6141732 0 0 0 5.5585938 -33.673828 A 6.6141732 6.6141732 0 0 0 6.6367188 -33.361328 A 6.6141732 6.6141732 0 0 0 7.75 -33.238281 A 6.6141732 6.6141732 0 0 0 8.8046875 -32.857422 A 6.6141732 6.6141732 0 0 0 9.9082031 -32.660156 A 6.6141732 6.6141732 0 0 0 10.933594 -32.210938 A 6.6141732 6.6141732 0 0 0 12.021484 -31.943359 A 6.6141732 6.6141732 0 0 0 13.017578 -31.425781 A 6.6141732 6.6141732 0 0 0 14.085938 -31.087891 A 6.6141732 6.6141732 0 0 0 15.044922 -30.507812 A 6.6141732 6.6141732 0 0 0 16.087891 -30.099609 A 6.6141732 6.6141732 0 0 0 17.007812 -29.458984 A 6.6141732 6.6141732 0 0 0 26.042969 -31.878906 A 6.6141732 6.6141732 0 0 0 23.621094 -40.914062 A 6.6141732 6.6141732 0 0 0 22.197266 -41.527344 A 6.6141732 6.6141732 0 0 0 20.896484 -42.371094 A 6.6141732 6.6141732 0 0 0 19.433594 -42.888672 A 6.6141732 6.6141732 0 0 0 18.080078 -43.648438 A 6.6141732 6.6141732 0 0 0 16.585938 -44.068359 A 6.6141732 6.6141732 0 0 0 15.185547 -44.736328 A 6.6141732 6.6141732 0 0 0 13.669922 -45.058594 A 6.6141732 6.6141732 0 0 0 12.228516 -45.634766 A 6.6141732 6.6141732 0 0 0 10.693359 -45.855469 A 6.6141732 6.6141732 0 0 0 9.2167969 -46.335938 A 6.6141732 6.6141732 0 0 0 7.671875 -46.457031 A 6.6141732 6.6141732 0 0 0 6.1660156 -46.839844 A 6.6141732 6.6141732 0 0 0 4.6171875 -46.859375 A 6.6141732 6.6141732 0 0 0 3.0898438 -47.142578 A 6.6141732 6.6141732 0 0 0 1.5390625 -47.0625 A 6.6141732 6.6141732 0 0 0 0 -47.244141 A 6.6141732 6.6141732 0 0 0 -0.009765625 -47.244141 z "
       transform="scale(0.26458333)" />
  </g>
</svg>
