<?xml version="1.0" encoding="UTF-8" standalone="no"?>
<svg
   xmlns:dc="http://purl.org/dc/elements/1.1/"
   xmlns:cc="http://creativecommons.org/ns#"
   xmlns:rdf="http://www.w3.org/1999/02/22-rdf-syntax-ns#"
   xmlns:svg="http://www.w3.org/2000/svg"
   xmlns="http://www.w3.org/2000/svg"
   xmlns:sodipodi="http://sodipodi.sourceforge.net/DTD/sodipodi-0.dtd"
   xmlns:inkscape="http://www.inkscape.org/namespaces/inkscape"
   width="9.9999997e-06mm"
   height="9.9999997e-06mm"
   viewBox="0 0 9.9999997e-06 9.9999997e-06"
   version="1.1"
   id="svg848"
   inkscape:version="1.0.1 (3bc2e813f5, 2020-09-07)"
   sodipodi:docname="template.svg">
  <defs
     id="defs842" />
  <sodipodi:namedview
     id="base"
     pagecolor="#ffffff"
     bordercolor="#666666"
     borderopacity="1.0"
     inkscape:pageopacity="0.0"
     inkscape:pageshadow="2"
     inkscape:zoom="3.959798"
     inkscape:cx="-21.681899"
     inkscape:cy="25.208862"
     inkscape:document-units="mm"
     inkscape:current-layer="layer1"
     inkscape:document-rotation="0"
     showgrid="false"
     inkscape:window-width="1837"
     inkscape:window-height="1057"
     inkscape:window-x="75"
     inkscape:window-y="-8"
     inkscape:window-maximized="1" />
  <metadata
     id="metadata845">
    <rdf:RDF>
      <cc:Work
         rdf:about="">
        <dc:format>image/svg+xml</dc:format>
        <dc:type
           rdf:resource="http://purl.org/dc/dcmitype/StillImage" />
        <dc:title></dc:title>
      </cc:Work>
    </rdf:RDF>
  </metadata>
  <g
     inkscape:label="Layer 1"
     inkscape:groupmode="layer"
     id="layer1">
    <path
       id="circle1413"
       style="fill:none;stroke:#000000;stroke-width:0.0999998"
       d="M 15.500006,4.9999999e-6 A 15.500001,15.500001 0 0 1 4.9999999e-6,15.500006 15.500001,15.500001 0 0 1 -15.499996,4.9999999e-6 15.500001,15.500001 0 0 1 4.9999999e-6,-15.499996 15.500001,15.500001 0 0 1 15.500006,4.9999999e-6 Z m -1.500001,0 A 14,14 0 0 1 4.9999999e-6,14.000005 14,14 0 0 1 -13.999995,4.9999999e-6 14,14 0 0 1 4.9999999e-6,-13.999995 14,14 0 0 1 14.000005,4.9999999e-6 Z" />
    <path
       style="fill:none;stroke:#000000;stroke-width:0.1"
       d="M -8.9999962,4.9999999e-6 A 1.75,1.75 0 0 1 -10.749996,1.750005 1.75,1.75 0 0 1 -12.499996,4.9999999e-6 1.75,1.75 0 0 1 -10.749996,-1.749995 1.75,1.75 0 0 1 -8.9999962,4.9999999e-6 Z"
       id="path1126" />
    <path
       style="fill:none;stroke:#000000;stroke-width:0.1"
       d="M 12.500006,4.9999999e-6 A 1.75,1.75 0 0 1 10.750006,1.750005 1.75,1.75 0 0 1 9.0000057,4.9999999e-6 1.75,1.75 0 0 1 10.750006,-1.749995 a 1.75,1.75 0 0 1 1.75,1.7499999999999 z"
       id="circle833" />
    <path
       style="fill:none;stroke:#000000;stroke-width:0.1"
       d="m 15.750006,5.15e-6 a 5.0000001,5.0000001 0 0 1 -5,4.99999995 A 5.0000001,5.0000001 0 0 1 5.7500058,5.15e-6 5.0000001,5.0000001 0 0 1 10.750006,-4.9999951 a 5.0000001,5.0000001 0 0 1 5,5.00000025 z"
       id="circle833-9" />
    <path
       style="fill:none;stroke:#000000;stroke-width:0.1"
       d="M -5.7499961,5.2e-6 A 5.0000001,5.0000001 0 0 1 -10.749995,5.000005 5.0000001,5.0000001 0 0 1 -15.749996,5.2e-6 5.0000001,5.0000001 0 0 1 -10.749995,-4.999995 5.0000001,5.0000001 0 0 1 -5.7499961,5.2e-6 Z"
       id="circle833-9-6" />
    <path
       style="fill:none;stroke:#000000;stroke-width:0.0999998"
       d="M 6.500005,4.9999999e-6 A 6.5000001,6.5000001 0 0 1 4.9999999e-6,6.500005 6.5000001,6.5000001 0 0 1 -6.499995,4.9999999e-6 6.5000001,6.5000001 0 0 1 4.9999999e-6,-6.499995 6.5000001,6.5000001 0 0 1 6.500005,4.9999999e-6 Z"
       id="circle833-9-7" />
  </g>
</svg>
